<svg width="80" height="80" viewBox="0 0 80 80" fill="none" xmlns="http://www.w3.org/2000/svg">
<path d="M69.6772 23.2786C68.5422 21.6468 67.0148 20.6209 65.2596 20.3137L65.2361 20.3102C64.4389 20.1784 63.624 20.1974 62.8339 20.3664L62.7469 20.3849C59.0576 21.2273 55.9476 25.1759 55.0097 30.2107C54.3198 33.8935 54.9316 37.5665 56.6466 40.0365C57.7806 41.67 59.3107 42.6953 61.0727 43.001L61.0918 43.004C61.889 43.1356 62.7039 43.1166 63.4941 42.9479C67.2306 42.1536 70.38 38.1967 71.3402 33.0932C72.0133 29.4183 71.394 25.7497 69.6772 23.2786ZM59.1303 46.3762C56.7231 45.5473 54.4475 44.7629 52.6663 42.8636C47.748 37.6037 44.7783 34.429 39.0214 35.6527C33.2645 36.8764 31.8373 40.9856 29.4755 47.7929C28.6187 50.2558 26.8551 51.9002 24.9875 53.6435C22.8459 55.6409 20.6332 57.7046 20.1758 60.9374C19.9799 62.1094 20.0106 63.3081 20.266 64.4685C21.3043 69.3532 25.9534 72.5188 30.6275 71.5253C33.0392 71.0127 35.4282 69.6315 37.9563 68.1696C40.387 66.764 42.8999 65.311 45.2342 64.8149C47.5685 64.3187 50.4483 64.6254 53.2311 64.9229C56.1286 65.2258 58.8606 65.5185 61.2792 65.0044C65.9464 64.0123 68.8993 59.2309 67.861 54.3462C67.6176 53.1823 67.1535 52.0758 66.4936 51.0866C64.7602 48.3166 61.8978 47.3302 59.1303 46.3762ZM23.6037 33.9381C25.6518 35.623 27.9409 36.3038 30.0496 35.8556C30.3375 35.7944 30.6204 35.7119 30.8961 35.6089C35.1569 34.0273 36.7566 28.0778 34.5361 22.0542C33.6044 19.5213 32.0817 17.3016 30.2579 15.8033C28.2134 14.1219 25.9219 13.4431 23.8145 13.891C23.5267 13.9522 23.2437 14.0347 22.968 14.1377C18.7073 15.7193 17.1075 21.6688 19.328 27.6924C20.2575 30.2215 21.7797 32.4385 23.6037 33.9381ZM46.4277 32.3076C46.7215 32.2895 47.0135 32.2498 47.3014 32.1886C49.4115 31.7401 51.2244 30.1874 52.4101 27.8151C53.4652 25.7036 53.9485 23.0602 53.7739 20.3679C53.3529 13.9646 49.4716 9.18016 44.9353 9.46555C44.6416 9.48357 44.3496 9.52333 44.0617 9.58451C41.9549 10.0352 40.1376 11.5874 38.9538 13.955C37.897 16.0655 37.4088 18.7127 37.5898 21.4079C38.0107 27.8112 41.8921 32.5957 46.4277 32.3076ZM21.8491 51.3453L21.8667 51.3345C23.3493 50.3391 24.329 48.7818 24.6995 46.8299C25.2605 43.8704 24.3276 40.2699 22.2022 37.1856C19.2599 32.9173 14.7744 30.5817 11.042 31.3751C10.2513 31.542 9.49911 31.856 8.82454 32.3009L8.80696 32.3117C7.32726 33.3008 6.34868 34.8636 5.97824 36.8154C5.41724 39.7749 6.35012 43.3754 8.47553 46.4597C11.4178 50.728 15.9033 53.0636 19.6358 52.2702C20.4249 52.1032 21.1757 51.7894 21.8491 51.3453Z" fill="#FF8B3E"/>
</svg>
