<svg width="24" height="24" viewBox="0 0 24 24" fill="none" xmlns="http://www.w3.org/2000/svg">
<path d="M13.171 6.23247C12.8775 5.94021 12.8765 5.46534 13.1687 5.17181C13.4344 4.90497 13.851 4.87987 14.1451 5.09709L14.2294 5.16953L20.2794 11.1935C20.547 11.46 20.5714 11.8781 20.3524 12.1722L20.2794 12.2564L14.2294 18.2814C13.9359 18.5737 13.4611 18.5727 13.1688 18.2792C12.9031 18.0124 12.8797 17.5957 13.0982 17.3025L13.171 17.2186L18.687 11.7247L13.171 6.23247Z" fill="#FF8B3E"/>
<path d="M4 11.7256C4 11.3459 4.28215 11.0321 4.64823 10.9824L4.75 10.9756H19.75C20.1642 10.9756 20.5 11.3114 20.5 11.7256C20.5 12.1053 20.2178 12.4191 19.8518 12.4687L19.75 12.4756L4.75 12.4756C4.33579 12.4756 4 12.1398 4 11.7256Z" fill="#FF8B3E"/>
</svg>
