<svg width="16" height="16" viewBox="0 0 16 16" fill="none" xmlns="http://www.w3.org/2000/svg">
<path d="M9.6125 3.66C9.29514 3.60138 9.00367 3.8039 8.94325 4.11369C8.88284 4.42348 9.086 4.72594 9.39473 4.78656C10.3242 4.96777 11.042 5.68728 11.2239 6.61997V6.62064C11.2757 6.88912 11.512 7.08432 11.7842 7.08432C11.8207 7.08432 11.8573 7.08099 11.8944 7.07432C12.2032 7.01237 12.4063 6.71057 12.3459 6.40012C12.0744 5.00708 11.0021 3.93115 9.6125 3.66" fill="#FF8B3E"/>
<path d="M9.57024 1.33878C9.42152 1.31746 9.27213 1.36143 9.15329 1.45604C9.03113 1.55197 8.95477 1.69054 8.93818 1.84577C8.90299 2.15955 9.12939 2.44336 9.44277 2.47867C11.6039 2.71983 13.2836 4.40334 13.5266 6.57119C13.5592 6.86166 13.8028 7.08084 14.0936 7.08084C14.1155 7.08084 14.1368 7.07951 14.1587 7.07684C14.3107 7.06019 14.4462 6.98491 14.5418 6.86499C14.6367 6.74507 14.6799 6.59584 14.6626 6.44328C14.3599 3.73847 12.2665 1.63924 9.57024 1.33878" fill="#FF8B3E"/>
<path fill-rule="evenodd" clip-rule="evenodd" d="M7.35417 8.64826C10.0136 11.3069 10.6169 8.23115 12.3101 9.92321C13.9425 11.5552 14.8808 11.8821 12.8125 13.9498C12.5534 14.158 10.9074 16.6628 5.12274 10.8798C-0.662644 5.096 1.84073 3.4483 2.04899 3.1893C4.12225 1.1159 4.44358 2.05959 6.076 3.69155C7.76925 5.38433 4.69478 5.98961 7.35417 8.64826Z" fill="#FF8B3E"/>
</svg>
