<svg width="24" height="24" viewBox="0 0 24 24" fill="none" xmlns="http://www.w3.org/2000/svg">
<path d="M21.0002 6.30941C20.9951 5.85805 20.899 5.41234 20.7176 4.99899C20.5362 4.58564 20.2733 4.21314 19.9446 3.90379C18.6321 2.65879 16.5021 2.70566 15.1989 4.00973L13.3877 5.83129C12.9599 5.44142 12.3984 5.23138 11.8198 5.24483C11.2412 5.25827 10.69 5.49416 10.2808 5.90348L9.43707 6.74723C9.2976 6.88654 9.18696 7.05197 9.11148 7.23407C9.03599 7.41616 8.99714 7.61135 8.99714 7.80848C8.99714 8.0056 9.03599 8.20079 9.11148 8.38289C9.18696 8.56498 9.2976 8.73042 9.43707 8.86973L9.62457 9.06285L4.84332 13.8441C4.3831 14.3007 4.04997 14.8695 3.87684 15.4943C3.70371 16.1191 3.69657 16.7782 3.85613 17.4066L3.10613 19.1325C3.00153 19.3697 2.97125 19.633 3.01928 19.8877C3.06731 20.1424 3.1914 20.3766 3.37519 20.5594C3.58778 20.7734 3.86023 20.918 4.15662 20.974C4.45301 21.0301 4.75944 20.995 5.0355 20.8735L6.678 20.1563C7.29509 20.2959 7.93752 20.2767 8.54516 20.1004C9.1528 19.9242 9.70579 19.5966 10.1524 19.1485L14.9336 14.3672L15.1268 14.5603C15.408 14.8414 15.7894 14.9993 16.1871 14.9993C16.5847 14.9993 16.9661 14.8414 17.2474 14.5603L18.0911 13.7166C18.5011 13.3069 18.7372 12.7547 18.7501 12.1752C18.7631 11.5957 18.5518 11.0336 18.1605 10.606L20.0121 8.74316C20.3322 8.42494 20.5847 8.04533 20.7545 7.62712C20.9243 7.20891 21.0079 6.76071 21.0002 6.30941ZM9.09394 18.0938C8.80532 18.383 8.4434 18.5882 8.047 18.6873C7.65061 18.7864 7.23471 18.7757 6.84394 18.6563C6.67261 18.6035 6.48802 18.6138 6.32363 18.6853L4.62675 19.4269L5.34394 17.7572C5.41836 17.5867 5.42671 17.3945 5.36738 17.2182C5.23147 16.821 5.20994 16.3937 5.30526 15.9849C5.40057 15.5761 5.60889 15.2024 5.90644 14.9063L10.6877 10.125L13.8696 13.3125L9.09394 18.0938ZM18.9499 7.68754L16.5714 10.08C16.4312 10.2206 16.3524 10.4111 16.3524 10.6097C16.3524 10.8083 16.4312 10.9988 16.5714 11.1394L17.0299 11.5979C17.0996 11.6675 17.1549 11.7502 17.1927 11.8413C17.2304 11.9323 17.2498 12.0299 17.2498 12.1285C17.2498 12.227 17.2304 12.3246 17.1927 12.4157C17.1549 12.5067 17.0996 12.5894 17.0299 12.6591L16.1861 13.5029L10.5002 7.80566L11.3439 6.96191C11.4846 6.82137 11.6753 6.74242 11.8741 6.74242C12.0729 6.74242 12.2636 6.82137 12.4043 6.96191L12.8627 7.42035C12.9324 7.49022 13.0151 7.54566 13.1063 7.58349C13.1974 7.62131 13.2951 7.64079 13.3938 7.64079C13.4925 7.64079 13.5902 7.62131 13.6813 7.58349C13.7724 7.54566 13.8552 7.49022 13.9249 7.42035L16.263 5.06816C16.9952 4.33504 18.1849 4.30129 18.9152 4.99223C19.0976 5.16453 19.2436 5.37171 19.3445 5.60147C19.4454 5.83123 19.4991 6.0789 19.5025 6.32981C19.5059 6.58071 19.4589 6.82975 19.3643 7.06217C19.2697 7.29459 19.1294 7.50565 18.9518 7.68285L18.9499 7.68754Z" fill="#EC9126"/>
</svg>
