<svg width="24" height="25" viewBox="0 0 24 25" fill="none" xmlns="http://www.w3.org/2000/svg">
<path fill-rule="evenodd" clip-rule="evenodd" d="M11.8597 13.638H11.8867C14.4067 13.638 16.4557 11.588 16.4557 9.069C16.4557 6.55 14.4067 4.5 11.8867 4.5C9.3677 4.5 7.3187 6.55 7.3187 9.066C7.3137 10.283 7.7827 11.429 8.6407 12.292C9.4967 13.156 10.6397 13.634 11.8597 13.638ZM8.8187 9.069C8.8187 7.377 10.1947 6 11.8867 6C13.5787 6 14.9557 7.377 14.9557 9.069C14.9557 10.762 13.5787 12.138 11.8867 12.138H11.8617C11.0457 12.135 10.2797 11.814 9.7047 11.235C9.1297 10.656 8.8157 9.889 8.8187 9.069Z" fill="#212121"/>
<path d="M17.1448 12.0005C17.1978 12.3755 17.5188 12.6465 17.8868 12.6465C17.9208 12.6465 17.9558 12.6445 17.9908 12.6395C19.7658 12.3905 21.1068 10.8505 21.1108 9.05551C21.1108 7.27251 19.8338 5.76851 18.0758 5.47951C17.6648 5.41451 17.2818 5.68851 17.2138 6.09751C17.1468 6.50651 17.4238 6.89251 17.8318 6.95951C18.8628 7.12851 19.6108 8.01051 19.6108 9.05351C19.6088 10.1055 18.8238 11.0075 17.7838 11.1535C17.3728 11.2105 17.0878 11.5895 17.1448 12.0005Z" fill="#212121"/>
<path d="M20.1604 18.5482C20.2744 18.8472 20.5594 19.0312 20.8614 19.0312C20.9504 19.0312 21.0404 19.0152 21.1284 18.9822C22.5584 18.4372 22.7724 17.4442 22.7724 16.9002C22.7724 16.0092 22.2634 14.8712 19.8404 14.5082C19.4274 14.4552 19.0474 14.7282 18.9864 15.1382C18.9254 15.5492 19.2084 15.9302 19.6174 15.9922C20.7154 16.1562 21.2724 16.4622 21.2724 16.9002C21.2724 17.0372 21.2724 17.3222 20.5944 17.5802C20.2074 17.7272 20.0124 18.1612 20.1604 18.5482Z" fill="#212121"/>
<path fill-rule="evenodd" clip-rule="evenodd" d="M11.8867 21.2909C10.2277 21.2909 5.17767 21.2909 5.17767 18.0959C5.17767 14.9139 10.2277 14.9139 11.8867 14.9139C13.5457 14.9139 18.5947 14.9139 18.5947 18.1129C18.5947 21.2909 13.7217 21.2909 11.8867 21.2909ZM11.8867 16.4139C9.51067 16.4139 6.67767 16.7059 6.67767 18.0959C6.67767 19.4969 9.51067 19.7909 11.8867 19.7909C14.2627 19.7909 17.0947 19.4999 17.0947 18.1129C17.0947 16.7089 14.2627 16.4139 11.8867 16.4139Z" fill="#212121"/>
<path d="M5.88566 12.6465C5.85166 12.6465 5.81666 12.6445 5.78166 12.6395C4.00666 12.3905 2.66666 10.8505 2.66266 9.05745C2.66266 7.27245 3.93966 5.76845 5.69766 5.47945C6.11866 5.41345 6.49166 5.69045 6.55966 6.09745C6.62666 6.50645 6.34966 6.89245 5.94166 6.95945C4.91066 7.12845 4.16266 8.01045 4.16266 9.05545C4.16466 10.1054 4.94966 11.0085 5.98866 11.1535C6.39966 11.2105 6.68466 11.5894 6.62766 12.0005C6.57466 12.3755 6.25366 12.6465 5.88566 12.6465Z" fill="#212121"/>
<path d="M2.64506 18.9822C2.73306 19.0152 2.82306 19.0312 2.91206 19.0312C3.21406 19.0312 3.49906 18.8472 3.61306 18.5482C3.76106 18.1612 3.56606 17.7272 3.17906 17.5802C2.50006 17.3212 2.50006 17.0372 2.50006 16.9002C2.50006 16.4622 3.05706 16.1562 4.15506 15.9922C4.56406 15.9302 4.84706 15.5492 4.78606 15.1382C4.72406 14.7282 4.34606 14.4562 3.93306 14.5082C1.50906 14.8712 1.00006 16.0102 1.00006 16.9002C1.00006 17.4432 1.21406 18.4362 2.64506 18.9822Z" fill="#212121"/>
</svg>
