<svg width="16" height="16" viewBox="0 0 16 16" fill="none" xmlns="http://www.w3.org/2000/svg">
<path fill-rule="evenodd" clip-rule="evenodd" d="M2.33301 6.87867C2.33301 3.81209 4.8956 1.3335 7.99531 1.3335C11.1038 1.3335 13.6663 3.81209 13.6663 6.87867C13.6663 8.42396 13.1043 9.85858 12.1793 11.0745C11.1589 12.4158 9.90111 13.5845 8.48537 14.5018C8.16135 14.7138 7.86892 14.7298 7.51331 14.5018C6.0895 13.5845 4.83173 12.4158 3.82001 11.0745C2.89433 9.85858 2.33301 8.42396 2.33301 6.87867ZM6.12916 7.05133C6.12916 8.07863 6.96745 8.88661 7.9953 8.88661C9.02384 8.88661 9.87019 8.07863 9.87019 7.05133C9.87019 6.03203 9.02384 5.18472 7.9953 5.18472C6.96745 5.18472 6.12916 6.03203 6.12916 7.05133Z" fill="#FF8B3E"/>
</svg>
