<svg width="20" height="21" viewBox="0 0 20 21" fill="none" xmlns="http://www.w3.org/2000/svg">
<path fill-rule="evenodd" clip-rule="evenodd" d="M14.1028 9.00013C13.7578 9.00013 13.4778 8.72013 13.4778 8.37513V6.58596C13.4778 4.8393 12.057 3.41846 10.3103 3.41846H10.297C9.45279 3.41846 8.66195 3.74346 8.06445 4.33596C7.46279 4.93096 7.13029 5.72513 7.12695 6.5718V8.37513C7.12695 8.72013 6.84695 9.00013 6.50195 9.00013C6.15695 9.00013 5.87695 8.72013 5.87695 8.37513V6.58596C5.88195 5.38596 6.34612 4.27846 7.18362 3.44846C8.02195 2.61763 9.12862 2.1368 10.3128 2.16846C12.7461 2.16846 14.7278 4.15013 14.7278 6.58596V8.37513C14.7278 8.72013 14.4478 9.00013 14.1028 9.00013Z" fill="#212121"/>
<path fill-rule="evenodd" clip-rule="evenodd" d="M7.1185 8.94092C5.72016 8.94092 4.5835 10.0776 4.5835 11.4759V15.0501C4.5835 16.4484 5.72016 17.5851 7.1185 17.5851H13.486C14.8835 17.5851 16.021 16.4484 16.021 15.0501V11.4759C16.021 10.0776 14.8835 8.94092 13.486 8.94092H7.1185ZM13.486 18.8351H7.1185C5.031 18.8351 3.3335 17.1376 3.3335 15.0501V11.4759C3.3335 9.38842 5.031 7.69092 7.1185 7.69092H13.486C15.5735 7.69092 17.271 9.38842 17.271 11.4759V15.0501C17.271 17.1376 15.5735 18.8351 13.486 18.8351Z" fill="#212121"/>
<path fill-rule="evenodd" clip-rule="evenodd" d="M10.3022 14.8132C9.95725 14.8132 9.67725 14.5332 9.67725 14.1882V12.3374C9.67725 11.9924 9.95725 11.7124 10.3022 11.7124C10.6472 11.7124 10.9272 11.9924 10.9272 12.3374V14.1882C10.9272 14.5332 10.6472 14.8132 10.3022 14.8132Z" fill="#212121"/>
</svg>
