<svg width="24" height="25" viewBox="0 0 24 25" fill="none" xmlns="http://www.w3.org/2000/svg">
<path fill-rule="evenodd" clip-rule="evenodd" d="M11.319 22.5H6.433C3.989 22.5 2 20.511 2 18.065V6.936C2 4.49 3.989 2.5 6.433 2.5H11.308C13.754 2.5 15.744 4.49 15.744 6.936V7.868C15.744 8.282 15.408 8.618 14.994 8.618C14.58 8.618 14.244 8.282 14.244 7.868V6.936C14.244 5.316 12.927 4 11.308 4H6.433C4.816 4 3.5 5.316 3.5 6.936V18.065C3.5 19.684 4.816 21 6.433 21H11.319C12.931 21 14.244 19.688 14.244 18.076V17.133C14.244 16.719 14.58 16.383 14.994 16.383C15.408 16.383 15.744 16.719 15.744 17.133V18.076C15.744 20.516 13.758 22.5 11.319 22.5Z" fill="#F75555"/>
<mask id="mask0_14881_8079" style="mask-type:luminance" maskUnits="userSpaceOnUse" x="8" y="11" width="15" height="3">
<path fill-rule="evenodd" clip-rule="evenodd" d="M8.99609 11.75H22.537V13.25H8.99609V11.75Z" fill="white"/>
</mask>
<g mask="url(#mask0_14881_8079)">
<path fill-rule="evenodd" clip-rule="evenodd" d="M21.7871 13.25H9.74609C9.33209 13.25 8.99609 12.914 8.99609 12.5C8.99609 12.086 9.33209 11.75 9.74609 11.75H21.7871C22.2011 11.75 22.5371 12.086 22.5371 12.5C22.5371 12.914 22.2011 13.25 21.7871 13.25Z" fill="#F75555"/>
</g>
<mask id="mask1_14881_8079" style="mask-type:luminance" maskUnits="userSpaceOnUse" x="18" y="8" width="5" height="9">
<path fill-rule="evenodd" clip-rule="evenodd" d="M18.1094 8.83521H22.5367V16.166H18.1094V8.83521Z" fill="white"/>
</mask>
<g mask="url(#mask1_14881_8079)">
<path fill-rule="evenodd" clip-rule="evenodd" d="M18.8591 16.166C18.6671 16.166 18.4741 16.093 18.3281 15.945C18.0361 15.651 18.0371 15.177 18.3301 14.885L20.7241 12.5L18.3301 10.116C18.0371 9.82396 18.0351 9.34996 18.3281 9.05596C18.6201 8.76196 19.0941 8.76196 19.3881 9.05396L22.3161 11.969C22.4581 12.109 22.5371 12.301 22.5371 12.5C22.5371 12.699 22.4581 12.891 22.3161 13.031L19.3881 15.947C19.2421 16.093 19.0501 16.166 18.8591 16.166Z" fill="#F75555"/>
</g>
</svg>
