<svg width="20" height="21" viewBox="0 0 20 21" fill="none" xmlns="http://www.w3.org/2000/svg">
<path fill-rule="evenodd" clip-rule="evenodd" d="M9.81443 11.7207C9.25693 11.7207 8.7011 11.5366 8.2361 11.1682L4.4986 8.15491C4.22943 7.93824 4.18777 7.54408 4.4036 7.27574C4.6211 7.00824 5.01443 6.96574 5.28277 7.18158L9.01693 10.1916C9.4861 10.5632 10.1469 10.5632 10.6194 10.1882L14.3161 7.18324C14.5844 6.96408 14.9778 7.00574 15.1961 7.27408C15.4136 7.54158 15.3728 7.93491 15.1053 8.15324L11.4019 11.1632C10.9336 11.5349 10.3736 11.7207 9.81443 11.7207Z" fill="#212121"/>
<mask id="mask0_16707_553" style="mask-type:luminance" maskUnits="userSpaceOnUse" x="0" y="2" width="19" height="17">
<path fill-rule="evenodd" clip-rule="evenodd" d="M0.833496 2.1665H18.7501V18.4165H0.833496V2.1665Z" fill="white"/>
</mask>
<g mask="url(#mask0_16707_553)">
<path fill-rule="evenodd" clip-rule="evenodd" d="M5.69933 17.1665H13.8827C13.8843 17.1648 13.891 17.1665 13.896 17.1665C14.8468 17.1665 15.6902 16.8265 16.3368 16.1807C17.0877 15.4332 17.5002 14.359 17.5002 13.1565V7.43317C17.5002 5.10567 15.9785 3.4165 13.8827 3.4165H5.701C3.60516 3.4165 2.0835 5.10567 2.0835 7.43317V13.1565C2.0835 14.359 2.49683 15.4332 3.24683 16.1807C3.8935 16.8265 4.73766 17.1665 5.68766 17.1665H5.69933ZM5.68516 18.4165C4.39933 18.4165 3.251 17.9498 2.36433 17.0665C1.37683 16.0815 0.833496 14.6932 0.833496 13.1565V7.43317C0.833496 4.43067 2.926 2.1665 5.701 2.1665H13.8827C16.6577 2.1665 18.7502 4.43067 18.7502 7.43317V13.1565C18.7502 14.6932 18.2068 16.0815 17.2193 17.0665C16.3335 17.949 15.1843 18.4165 13.896 18.4165H13.8827H5.701H5.68516Z" fill="#212121"/>
</g>
</svg>
