<svg width="16" height="16" viewBox="0 0 16 16" fill="none" xmlns="http://www.w3.org/2000/svg">
<path fill-rule="evenodd" clip-rule="evenodd" d="M11.2933 2C12.1873 2 13.0473 2.35333 13.68 2.98733C14.3133 3.62 14.6673 4.47333 14.6673 5.36667V10.6333C14.6673 12.4933 13.154 14 11.2933 14H4.70732C2.84665 14 1.33398 12.4933 1.33398 10.6333V5.36667C1.33398 3.50667 2.83998 2 4.70732 2H11.2933ZM12.354 6.36L12.4073 6.30667C12.5667 6.11333 12.5667 5.83333 12.4 5.64C12.3073 5.54067 12.18 5.48 12.0473 5.46667C11.9073 5.45933 11.774 5.50667 11.6733 5.6L8.66732 8C8.28065 8.32067 7.72665 8.32067 7.33398 8L4.33398 5.6C4.12665 5.44667 3.83998 5.46667 3.66732 5.64667C3.48732 5.82667 3.46732 6.11333 3.61998 6.31333L3.70732 6.4L6.74065 8.76667C7.11398 9.06 7.56665 9.22 8.04065 9.22C8.51332 9.22 8.97398 9.06 9.34665 8.76667L12.354 6.36Z" fill="#FF8B3E"/>
</svg>
