<svg width="28" height="28" viewBox="0 0 28 28" fill="none" xmlns="http://www.w3.org/2000/svg">
<path d="M24.3871 8.14739C23.9899 7.57623 23.4553 7.21718 22.8409 7.10968L22.8327 7.10844C22.5537 7.0623 22.2685 7.06897 21.9919 7.1281L21.9615 7.13457C20.6702 7.42942 19.5817 8.81144 19.2535 10.5736C19.012 11.8626 19.2261 13.1481 19.8264 14.0126C20.2233 14.5844 20.7588 14.9432 21.3755 15.0502L21.3822 15.0513C21.6612 15.0973 21.9464 15.0907 22.223 15.0316C23.5308 14.7536 24.6331 13.3687 24.9691 11.5825C25.2047 10.2963 24.988 9.01226 24.3871 8.14739ZM20.6957 16.2316C19.8532 15.9414 19.0567 15.6669 18.4333 15.0021C16.7119 13.1612 15.6725 12.05 13.6576 12.4783C11.6426 12.9066 11.1431 14.3448 10.3165 16.7274C10.0166 17.5894 9.39935 18.1649 8.7457 18.7751C7.99615 19.4742 7.22171 20.1965 7.0616 21.328C6.99305 21.7382 7.00377 22.1577 7.09317 22.5639C7.45656 24.2735 9.08378 25.3814 10.7197 25.0337C11.5638 24.8543 12.4 24.3709 13.2848 23.8592C14.1355 23.3673 15.015 22.8587 15.832 22.6851C16.649 22.5114 17.657 22.6188 18.631 22.7229C19.6451 22.8289 20.6013 22.9313 21.4478 22.7514C23.0813 22.4042 24.1148 20.7307 23.7514 19.0211C23.6662 18.6137 23.5038 18.2264 23.2728 17.8802C22.6661 16.9107 21.6643 16.5655 20.6957 16.2316ZM8.26138 11.8782C8.97821 12.4679 9.77939 12.7062 10.5174 12.5493C10.6182 12.5279 10.7172 12.499 10.8137 12.463C12.305 11.9094 12.8649 9.82709 12.0877 7.71883C11.7616 6.83234 11.2287 6.05542 10.5903 5.53103C9.87477 4.94254 9.07275 4.70495 8.33516 4.86172C8.23441 4.88314 8.13538 4.912 8.03889 4.94806C6.54763 5.50163 5.98772 7.58395 6.76488 9.69222C7.09021 10.5774 7.62296 11.3533 8.26138 11.8782ZM16.2498 11.3075C16.3526 11.3012 16.4548 11.2873 16.5556 11.2659C17.2941 11.1089 17.9286 10.5655 18.3436 9.73517C18.7129 8.99611 18.8821 8.07095 18.8209 7.12863C18.6736 4.88748 17.3151 3.21293 15.7274 3.31281C15.6246 3.31912 15.5224 3.33303 15.4217 3.35445C14.6843 3.51218 14.0482 4.05544 13.6339 4.8841C13.264 5.62279 13.0932 6.54931 13.1565 7.49265C13.3038 9.7338 14.6623 11.4084 16.2498 11.3075ZM7.64726 17.9707L7.65341 17.9669C8.17233 17.6186 8.51524 17.0735 8.64489 16.3903C8.84124 15.3545 8.51473 14.0943 7.77084 13.0148C6.74104 11.5209 5.1711 10.7035 3.86476 10.9812C3.58803 11.0396 3.32476 11.1495 3.08866 11.3052L3.08251 11.309C2.56461 11.6551 2.22211 12.2021 2.09246 12.8853C1.89611 13.9211 2.22262 15.1813 2.96651 16.2608C3.99631 17.7547 5.56624 18.5721 6.87259 18.2945C7.1488 18.236 7.41157 18.1262 7.64726 17.9707Z" fill="#FF8B3E"/>
</svg>
