<svg width="28" height="28" viewBox="0 0 28 28" fill="none" xmlns="http://www.w3.org/2000/svg">
<path d="M24.3868 8.14763C23.9896 7.57648 23.455 7.21742 22.8407 7.10992L22.8324 7.10869C22.5534 7.06255 22.2682 7.06922 21.9917 7.12835L21.9612 7.13482C20.67 7.42966 19.5814 8.81168 19.2532 10.5739C19.0117 11.8628 19.2258 13.1484 19.8261 14.0129C20.223 14.5846 20.7585 14.9435 21.3753 15.0505L21.3819 15.0515C21.661 15.0976 21.9462 15.0909 22.2227 15.0319C23.5305 14.7539 24.6328 13.3689 24.9689 11.5827C25.2044 10.2965 24.9877 9.01251 24.3868 8.14763ZM20.6954 16.2318C19.8529 15.9417 19.0564 15.6671 18.433 15.0024C16.7116 13.1614 15.6722 12.0503 13.6573 12.4786C11.6424 12.9068 11.1429 14.3451 10.3162 16.7276C10.0163 17.5896 9.39908 18.1652 8.74543 18.7753C7.99588 19.4744 7.22143 20.1967 7.06133 21.3282C6.99278 21.7384 7.00349 22.1579 7.0929 22.5641C7.45629 24.2737 9.08351 25.3817 10.7194 25.034C11.5635 24.8545 12.3997 24.3711 13.2845 23.8595C14.1352 23.3675 15.0148 22.859 15.8318 22.6853C16.6488 22.5117 17.6567 22.619 18.6307 22.7231C19.6448 22.8291 20.601 22.9316 21.4475 22.7517C23.081 22.4044 24.1145 20.7309 23.7512 19.0213C23.666 18.6139 23.5035 18.2266 23.2726 17.8804C22.6659 16.9109 21.664 16.5657 20.6954 16.2318ZM8.26111 11.8785C8.97793 12.4682 9.77911 12.7064 10.5172 12.5496C10.6179 12.5281 10.717 12.4993 10.8134 12.4632C12.3047 11.9097 12.8646 9.82734 12.0875 7.71907C11.7613 6.83258 11.2284 6.05566 10.5901 5.53127C9.8745 4.94278 9.07247 4.70519 8.33489 4.86197C8.23413 4.88339 8.1351 4.91225 8.03861 4.9483C6.54736 5.50187 5.98744 7.58419 6.76461 9.69246C7.08994 10.5776 7.62268 11.3536 8.26111 11.8785ZM16.2495 11.3078C16.3523 11.3015 16.4545 11.2875 16.5553 11.2661C17.2938 11.1091 17.9283 10.5657 18.3433 9.73541C18.7126 8.99636 18.8818 8.07119 18.8207 7.12888C18.6733 4.88773 17.3149 3.21317 15.7272 3.31306C15.6244 3.31936 15.5221 3.33328 15.4214 3.35469C14.684 3.51242 14.048 4.05569 13.6336 4.88435C13.2638 5.62303 13.0929 6.54955 13.1562 7.49289C13.3036 9.73404 14.662 11.4086 16.2495 11.3078ZM7.64699 17.971L7.65314 17.9672C8.17206 17.6188 8.51496 17.0737 8.64462 16.3906C8.84097 15.3548 8.51446 14.0946 7.77057 13.0151C6.74077 11.5212 5.17083 10.7037 3.86448 10.9814C3.58776 11.0398 3.32449 11.1497 3.08839 11.3054L3.08223 11.3092C2.56434 11.6554 2.22184 12.2024 2.09218 12.8855C1.89583 13.9213 2.22234 15.1815 2.96623 16.261C3.99603 17.7549 5.56597 18.5724 6.87232 18.2947C7.14852 18.2362 7.41129 18.1264 7.64699 17.971Z" fill="#EC9126"/>
</svg>
