<svg width="332" height="150" viewBox="0 0 332 150" fill="none" xmlns="http://www.w3.org/2000/svg">
<g clip-path="url(#clip0_16658_10809)">
<path d="M0 16C0 8.45753 0 4.68629 2.34315 2.34315C4.68629 0 8.45753 0 16 0H316C323.542 0 327.314 0 329.657 2.34315C332 4.68629 332 8.45753 332 16V134C332 141.542 332 145.314 329.657 147.657C327.314 150 323.542 150 316 150H16C8.45753 150 4.68629 150 2.34315 147.657C0 145.314 0 141.542 0 134V16Z" fill="#FF8B3E"/>
<g opacity="0.4">
<g opacity="0.25">
<path d="M136.037 185.027C133.78 186.473 131.473 186.757 129.235 185.093C127.007 183.439 126.8 181.189 127.657 178.42C124.739 179.025 122.107 179.006 120.372 176.51C118.893 174.374 119.248 172.275 120.707 170.262C120.885 170.092 121.072 169.922 121.249 169.752C122.294 169.033 123.507 168.334 124.72 168.57C126.938 168.995 126.534 168.012 126.652 166.509C126.819 164.439 126.583 163.588 124.168 163.919C123.29 164.042 122.275 163.286 121.318 162.936C121.062 162.69 120.806 162.445 120.549 162.199C119.268 160.138 118.873 158.03 120.431 155.951C122.156 153.635 124.601 153.436 127.598 154.211C126.839 151.375 126.948 148.889 129.55 147.245C131.768 145.836 133.957 146.195 136.047 147.585C136.224 147.755 136.402 147.935 136.579 148.105C137.003 149.107 137.93 150.194 137.772 151.111C137.338 153.568 138.561 153.124 140.336 153.266C142.475 153.436 142.652 152.878 142.593 151.13C142.564 150.137 143.372 149.126 143.806 148.124C143.993 147.935 144.18 147.755 144.368 147.566C146.605 146.054 148.912 145.798 151.16 147.443C153.398 149.078 153.664 151.319 152.797 154.069C155.646 153.597 158.308 153.483 160.043 155.998C161.521 158.134 161.186 160.223 159.776 162.265C159.56 162.473 159.343 162.671 159.126 162.879C158.061 163.276 156.947 164.099 155.951 163.985C153.782 163.749 153.802 164.486 153.832 166.254C153.861 167.965 153.753 168.787 155.951 168.551C156.957 168.447 158.061 169.269 159.126 169.666C159.343 169.874 159.569 170.082 159.786 170.3C161.285 172.446 161.581 174.657 159.855 176.794C158.15 178.911 155.843 179.252 152.954 178.344C153.546 181.199 153.447 183.808 150.687 185.452C148.577 186.71 146.477 186.369 144.466 185.131C144.19 184.866 143.924 184.611 143.648 184.346C142.583 182.834 142.307 181.151 142.603 179.393C139.576 179.062 137.062 179.148 137.368 182.995C137.408 183.458 136.875 183.959 136.599 184.441C136.432 184.64 136.234 184.838 136.037 185.027ZM150.539 176.17C148.804 175.158 152.452 171.982 148.577 171.973C146.596 171.963 146.142 172.616 146.152 174.364C146.182 178.042 149.445 174.563 150.539 176.17ZM129.984 176.217C131.049 174.818 134.923 178.127 134.253 173.599C133.72 169.997 131.325 172.833 130.014 171.907C130.546 173.4 129.974 174.657 129.984 176.217ZM150.667 156.452C146.083 156.905 146.191 156.924 146.063 157.945C145.61 161.49 148.4 160.28 150.579 160.838C149.928 159.193 150.431 157.851 150.667 156.452ZM129.945 156.263C130.201 157.86 130.359 159.24 130.102 160.781C131.364 159.694 133.898 162.378 134.332 158.805C134.854 154.391 130.97 157.898 129.945 156.263ZM138.452 166.008C138.531 166.954 137.792 168.286 139.793 167.918C140.809 167.729 142.12 168.419 141.942 166.396C141.824 165.025 141.755 164.486 140.109 164.59C138.876 164.656 137.989 164.543 138.452 166.008Z" fill="white"/>
<path d="M136.589 148.114C136.412 147.944 136.234 147.764 136.057 147.594C136.027 147.377 136.057 147.131 135.968 146.942C134.805 144.475 134.765 142.14 137.151 140.344C139.093 138.879 141.282 138.869 143.244 140.325C145.649 142.112 145.61 144.447 144.476 146.914C144.387 147.112 144.407 147.349 144.377 147.566C144.19 147.755 144.003 147.935 143.815 148.124C141.4 149.059 138.995 149.031 136.589 148.114Z" fill="white"/>
<path d="M163.069 156.111C160.457 155.951 158.288 153.54 158.544 151.082C158.8 148.7 161.157 146.744 163.601 146.895C166.214 147.056 168.393 149.466 168.127 151.924C167.87 154.306 165.514 156.253 163.069 156.111Z" fill="white"/>
<path d="M116.912 146.914C119.347 146.82 121.654 148.805 121.851 151.178C122.058 153.626 119.85 155.989 117.247 156.093C114.674 156.187 112.298 153.985 112.298 151.499C112.298 149.145 114.447 147.009 116.912 146.914Z" fill="white"/>
<path d="M160.437 144.125C160.427 146.63 158.031 148.833 155.429 148.719C152.944 148.606 150.805 146.46 150.815 144.087C150.825 141.583 153.23 139.38 155.823 139.493C158.307 139.607 160.447 141.762 160.437 144.125Z" fill="white"/>
<path d="M124.808 139.522C127.401 139.531 129.688 141.828 129.57 144.295C129.451 146.658 127.223 148.71 124.769 148.691C122.176 148.681 119.889 146.384 120.007 143.917C120.125 141.554 122.363 139.512 124.808 139.522Z" fill="white"/>
<path d="M136.954 136.61C136.668 139.39 135.219 140.949 132.439 140.902C129.668 140.855 128.091 139.295 128.121 136.648C128.16 133.992 129.787 132.489 132.557 132.508C135.376 132.527 136.697 134.191 136.954 136.61Z" fill="white"/>
<path d="M152.383 136.761C152.127 139.361 150.697 140.854 147.947 140.949C145.324 141.034 143.293 139.011 143.5 136.497C143.727 133.878 145.334 132.432 148.055 132.498C150.815 132.564 152.186 134.181 152.383 136.761Z" fill="white"/>
<path d="M140.148 125.438C142.524 125.702 144.131 126.922 144.18 129.256C144.219 131.582 142.701 133.085 140.286 133.132C137.861 133.179 136.293 131.714 136.234 129.398C136.175 127.063 137.752 125.797 140.148 125.438Z" fill="white"/>
<path d="M121.112 136.658C120.845 138.917 119.583 140.458 117.168 140.505C114.753 140.553 113.185 139.097 113.136 136.8C113.077 134.494 114.595 132.991 117.001 132.924C119.416 132.868 120.737 134.361 121.112 136.658Z" fill="white"/>
<path d="M163.276 132.801C165.662 133.075 167.288 134.294 167.338 136.629C167.387 138.964 165.849 140.486 163.424 140.533C160.989 140.59 159.411 139.106 159.342 136.79C159.283 134.446 160.871 133.179 163.276 132.801Z" fill="white"/>
<path d="M171.104 148.02C168.718 147.746 167.101 146.517 167.052 144.182C167.013 141.848 168.551 140.335 170.966 140.278C173.401 140.231 174.978 141.706 175.037 144.031C175.097 146.375 173.509 147.652 171.104 148.02Z" fill="white"/>
<path d="M113.411 143.993C113.135 146.309 111.873 147.85 109.458 147.897C107.043 147.944 105.475 146.488 105.426 144.191C105.367 141.876 106.895 140.382 109.291 140.325C111.716 140.259 113.017 141.772 113.411 143.993Z" fill="white"/>
<path d="M178.873 147.944C181.239 148.181 182.53 149.428 182.412 151.697C182.294 153.994 180.795 155.138 178.459 155.006C176.26 154.883 175.057 153.569 175.087 151.47C175.126 149.164 176.536 148.058 178.873 147.944Z" fill="white"/>
<path d="M155.626 125.787C157.962 125.957 159.323 127.129 159.264 129.408C159.214 131.695 157.805 132.886 155.458 132.82C153.27 132.754 152.018 131.515 151.988 129.417C151.949 127.129 153.289 125.957 155.626 125.787Z" fill="white"/>
<path d="M101.897 155.024C99.4223 154.882 98.0322 153.776 98.0322 151.498C98.0421 149.23 99.3829 148.001 101.739 148.02C103.918 148.039 105.19 149.23 105.278 151.328C105.387 153.616 104.046 154.76 101.897 155.024Z" fill="white"/>
<path d="M128.455 129.464C128.189 131.695 126.898 132.914 124.551 132.791C122.175 132.659 121.012 131.241 121.17 129.02C121.318 126.931 122.668 125.806 124.847 125.844C127.233 125.891 128.347 127.243 128.455 129.464Z" fill="white"/>
<path d="M147.818 118.802C149.612 118.915 150.923 119.804 151.101 121.6C151.298 123.575 150.105 124.88 148.084 124.984C146.044 125.088 144.742 123.878 144.713 121.912C144.693 120.125 145.896 119.095 147.818 118.802Z" fill="white"/>
<path d="M135.761 121.874C135.613 123.613 134.647 124.851 132.783 124.993C130.733 125.144 129.382 123.982 129.303 122.035C129.234 120.078 130.516 118.849 132.567 118.858C134.44 118.868 135.485 120.04 135.761 121.874Z" fill="white"/>
<path d="M170.768 126.496C172.839 126.591 173.962 127.489 173.943 129.37C173.923 131.062 172.927 132.054 171.163 132.092C169.23 132.139 168.156 131.128 168.146 129.266C168.146 127.545 169.23 126.723 170.768 126.496Z" fill="white"/>
<path d="M178.497 133.869C180.558 133.964 181.691 134.871 181.672 136.762C181.652 138.463 180.656 139.465 178.872 139.503C176.93 139.55 175.835 138.529 175.835 136.658C175.835 134.928 176.92 134.087 178.497 133.869Z" fill="white"/>
<path d="M112.268 129.388C112.09 131.061 111.183 132.073 109.399 132.063C107.437 132.054 106.412 130.948 106.53 129.105C106.639 127.413 107.762 126.515 109.527 126.59C111.302 126.657 112.159 127.706 112.268 129.388Z" fill="white"/>
<path d="M166.086 121.836C165.938 123.367 165.1 124.426 163.513 124.502C161.738 124.587 160.624 123.556 160.644 121.855C160.664 120.324 161.718 119.359 163.315 119.35C164.942 119.331 165.81 120.342 166.086 121.836Z" fill="white"/>
<path d="M119.81 121.94C119.574 123.433 118.736 124.473 117.148 124.482C115.403 124.492 114.309 123.424 114.418 121.751C114.506 120.266 115.581 119.302 117.178 119.368C118.765 119.425 119.593 120.446 119.81 121.94Z" fill="white"/>
<path d="M101.769 139.512C99.8367 139.314 98.7818 138.435 98.8015 136.724C98.8213 134.843 99.9846 133.869 101.907 133.983C103.672 134.096 104.588 135.174 104.519 136.866C104.441 138.605 103.277 139.352 101.769 139.512Z" fill="white"/>
<path d="M186.296 146.762C184.649 146.432 183.575 145.505 183.772 143.813C183.939 142.339 185.014 141.384 186.601 141.507C188.336 141.63 189.352 142.717 189.164 144.399C189.007 145.883 187.912 146.668 186.296 146.762Z" fill="white"/>
<path d="M96.652 144.182C96.3562 145.694 95.4689 146.705 93.8521 146.639C92.2649 146.573 91.2397 145.562 91.2988 144.021C91.358 142.499 92.4226 141.516 94.0296 141.573C95.6464 141.629 96.4745 142.669 96.652 144.182Z" fill="white"/>
<path d="M126.859 114.548C126.701 115.682 126.06 116.457 124.857 116.467C123.477 116.476 122.669 115.654 122.777 114.34C122.866 113.215 123.684 112.515 124.897 112.581C126.1 112.657 126.721 113.413 126.859 114.548Z" fill="white"/>
<path d="M142.524 114.538C142.327 116.136 141.4 116.854 139.912 116.713C138.561 116.58 137.841 115.711 137.93 114.416C138.029 112.913 139.015 112.223 140.513 112.355C141.874 112.478 142.485 113.376 142.524 114.538Z" fill="white"/>
<path d="M157.745 114.463C157.498 115.881 156.729 116.637 155.379 116.495C154.225 116.372 153.496 115.616 153.575 114.463C153.663 113.158 154.531 112.449 155.872 112.572C157.065 112.676 157.597 113.518 157.745 114.463Z" fill="white"/>
<path d="M88.3117 151.499C88.1638 152.633 87.5328 153.417 86.3301 153.436C84.9499 153.465 84.1317 152.652 84.2204 151.338C84.2993 150.213 85.0978 149.504 86.3203 149.561C87.5329 149.608 88.1539 150.364 88.3117 151.499Z" fill="white"/>
<path d="M196.312 151.29C196.214 152.746 195.534 153.512 194.144 153.512C192.941 153.512 192.182 152.86 192.083 151.725C191.975 150.44 192.645 149.589 194.025 149.494C195.435 149.39 196.105 150.194 196.312 151.29Z" fill="white"/>
</g>
<g opacity="0.25">
<path d="M11.2047 108.253C8.94708 109.699 6.64017 109.982 4.40228 108.319C2.17425 106.665 1.96725 104.415 2.82494 101.645C-0.0931821 102.25 -2.72542 102.231 -4.46052 99.7358C-5.9393 97.5995 -5.58443 95.501 -4.12537 93.4875C-3.94791 93.3174 -3.76055 93.1473 -3.5831 92.9771C-2.5381 92.2587 -1.32554 91.5592 -0.11294 91.7955C2.10523 92.2209 1.70105 91.2378 1.81935 89.7348C1.98695 87.6647 1.75032 86.814 -0.665015 87.1448C-1.54242 87.2677 -2.55781 86.5114 -3.51408 86.1617C-3.7704 85.9159 -4.02675 85.6702 -4.28308 85.4244C-5.56468 83.3637 -5.95902 81.2558 -4.40137 79.1762C-2.67613 76.8602 -0.231199 76.6617 2.76579 77.4369C2.00669 74.6011 2.11511 72.115 4.71776 70.4702C6.93593 69.0618 9.12449 69.421 11.2145 70.8105C11.3919 70.9807 11.5694 71.1603 11.7469 71.3304C12.1708 72.3324 13.0975 73.4195 12.9397 74.3364C12.506 76.7941 13.7285 76.3498 15.503 76.4916C17.6423 76.6617 17.8197 76.104 17.7606 74.3553C17.731 73.3627 18.5394 72.3513 18.9732 71.3493C19.1605 71.1603 19.3478 70.9807 19.5351 70.7916C21.773 69.2792 24.0799 69.024 26.3276 70.6687C28.5655 72.304 28.8317 74.5443 27.9642 77.2951C30.8133 76.8224 33.4751 76.709 35.2102 79.2234C36.6889 81.3597 36.3537 83.4488 34.944 85.4906C34.7271 85.6985 34.5102 85.897 34.2933 86.105C33.2286 86.502 32.1146 87.3244 31.1189 87.211C28.95 86.9747 28.9697 87.7119 28.9993 89.4796C29.0289 91.1905 28.9204 92.0129 31.1189 91.7766C32.1244 91.6726 33.2286 92.495 34.2933 92.892C34.5102 93.1 34.7369 93.308 34.9538 93.5254C36.4523 95.6711 36.7481 97.8831 35.0229 100.019C33.3173 102.137 31.0104 102.477 28.1219 101.57C28.7134 104.424 28.6148 107.033 25.8544 108.678C23.7447 109.935 21.6448 109.595 19.6337 108.357C19.3577 108.092 19.0915 107.837 18.8154 107.572C17.7507 106.06 17.4747 104.377 17.7704 102.619C14.7439 102.288 12.2299 102.373 12.5356 106.22C12.575 106.684 12.0427 107.184 11.7666 107.667C11.599 107.865 11.4019 108.064 11.2047 108.253ZM25.7065 99.3955C23.9714 98.384 27.6191 95.2079 23.7447 95.1985C21.7631 95.189 21.3096 95.8413 21.3195 97.59C21.3491 101.267 24.6122 97.7885 25.7065 99.3955ZM5.15154 99.4428C6.21626 98.0438 10.0907 101.352 9.4203 96.8244C8.88794 93.2229 6.49227 96.0587 5.18108 95.1324C5.71344 96.6259 5.14168 97.8831 5.15154 99.4428ZM25.8347 79.6771C21.2505 80.1309 21.3589 80.1498 21.2308 81.1707C20.7773 84.7155 23.5673 83.5055 25.746 84.0632C25.0953 82.4184 25.5981 81.0761 25.8347 79.6771ZM5.11213 79.4881C5.36845 81.0856 5.52616 82.4657 5.26984 84.0065C6.53173 82.9194 9.06535 85.604 9.49912 82.0309C10.0216 77.6165 6.13741 81.1234 5.11213 79.4881ZM13.62 89.2338C13.6988 90.1791 12.9595 91.5119 14.9608 91.1433C15.9762 90.9542 17.2874 91.6443 17.1099 89.6214C16.9916 88.2508 16.9226 87.7119 15.2763 87.8159C14.0439 87.8821 13.1566 87.7686 13.62 89.2338Z" fill="white"/>
<path d="M11.7571 71.3398C11.5796 71.1696 11.4021 70.99 11.2247 70.8199C11.1951 70.6025 11.2247 70.3567 11.136 70.1676C9.97267 67.7005 9.93324 65.3657 12.319 63.5697C14.2611 62.1045 16.4497 62.095 18.4116 63.5507C20.817 65.3373 20.7776 67.6721 19.6439 70.1393C19.5552 70.3378 19.5748 70.5741 19.5453 70.7915C19.3579 70.9806 19.1706 71.1602 18.9833 71.3492C16.568 72.285 14.1625 72.2567 11.7571 71.3398Z" fill="white"/>
<path d="M34.9738 93.526C34.7569 93.3181 34.5302 93.1101 34.3133 92.8926C33.2978 90.6334 33.3176 88.3648 34.3133 86.1056C34.5302 85.8976 34.747 85.6992 34.9639 85.4912C35.7329 85.2643 36.4822 84.9808 37.2708 84.8295C39.4989 84.423 41.4212 84.943 42.7028 86.8429C43.876 88.5822 43.876 90.4066 42.7127 92.1459C41.4409 94.0553 39.5185 94.5753 37.2905 94.1688C36.492 94.0364 35.7427 93.7529 34.9738 93.526Z" fill="white"/>
<path d="M18.8455 107.572C19.1215 107.837 19.3877 108.101 19.6637 108.356C19.8116 108.886 19.9595 109.415 20.1073 109.954C20.7284 112.213 20.3538 114.227 18.2638 115.616C16.3414 116.892 14.2809 116.864 12.3881 115.541C10.3375 114.104 10.0122 112.081 10.6925 109.841C10.8502 109.311 11.0277 108.782 11.1953 108.252C11.3924 108.054 11.5896 107.865 11.7966 107.666C14.1331 106.721 16.4794 106.75 18.8455 107.572Z" fill="white"/>
<path d="M43.3342 104.207C43.3934 106.712 41.0372 108.971 38.4247 108.923C35.9502 108.876 33.732 106.759 33.6827 104.386C33.6236 101.872 35.9699 99.6221 38.5923 99.6788C41.0668 99.7166 43.2751 101.825 43.3342 104.207Z" fill="white"/>
<path d="M4.75748 111.523C4.85607 114 2.55904 116.287 -0.043613 116.287C-2.49839 116.287 -4.73626 114.217 -4.83484 111.854C-4.93343 109.377 -2.62654 107.09 -0.0337448 107.09C2.42103 107.09 4.6589 109.151 4.75748 111.523Z" fill="white"/>
<path d="M38.2376 79.3369C35.6251 79.1762 33.4562 76.7658 33.7125 74.3081C33.9688 71.926 36.325 69.9693 38.7699 70.1205C41.3825 70.2812 43.5612 72.6917 43.295 75.1494C43.0387 77.5314 40.6825 79.4787 38.2376 79.3369Z" fill="white"/>
<path d="M35.6049 67.3509C35.595 69.8559 33.1994 72.0583 30.5967 71.9449C28.1124 71.8315 25.9731 69.6857 25.9829 67.3131C25.9928 64.8081 28.3983 62.6056 30.9911 62.719C33.4754 62.8325 35.6147 64.9877 35.6049 67.3509Z" fill="white"/>
<path d="M-0.0240984 62.7471C2.56869 62.7566 4.85589 65.0536 4.73759 67.5207C4.61928 69.8839 2.39126 71.9351 -0.0635109 71.9162C-2.6563 71.9068 -4.9435 69.6098 -4.82519 67.1426C-4.70689 64.7795 -2.46901 62.7377 -0.0240984 62.7471Z" fill="white"/>
<path d="M35.6048 111.627C35.6443 114.122 33.2782 116.363 30.6756 116.297C28.2011 116.23 26.0125 114.113 25.9829 111.74C25.9435 109.235 28.2997 107.005 30.9122 107.071C33.3965 107.137 35.5753 109.254 35.6048 111.627Z" fill="white"/>
<path d="M3.20996 118.811C3.59444 116.212 5.1324 114.813 7.86322 114.841C10.4757 114.87 12.3883 116.996 12.0531 119.511C11.708 122.139 9.99264 123.462 7.2914 123.273C4.53102 123.093 3.28883 121.373 3.20996 118.811Z" fill="white"/>
<path d="M46.2128 101.201C43.5017 100.974 41.9145 99.6128 41.7765 96.9754C41.6483 94.461 43.7778 92.4571 46.4001 92.6462C49.1408 92.8447 50.6886 94.376 50.6394 96.9944C50.5901 99.6317 48.9141 100.983 46.2128 101.201Z" fill="white"/>
<path d="M27.57 119.029C27.3728 121.61 25.9926 123.235 23.2322 123.311C20.5014 123.387 18.8748 121.922 18.6382 119.303C18.4114 116.789 20.4719 114.728 23.1041 114.813C25.8645 114.917 27.294 116.42 27.57 119.029Z" fill="white"/>
<path d="M46.1439 86.4172C43.4229 86.1431 41.8652 84.7536 41.7765 82.1163C41.6976 79.6019 43.8665 77.6357 46.4889 77.8626C49.2296 78.1083 50.7379 79.6775 50.6492 82.2864C50.5407 84.9237 48.8254 86.2376 46.1439 86.4172Z" fill="white"/>
<path d="M12.1218 59.836C11.8359 62.6151 10.3866 64.1748 7.60653 64.1276C4.83629 64.0803 3.25892 62.5206 3.28849 59.8739C3.32793 57.2177 4.95458 55.7147 7.72483 55.7336C10.5444 55.7525 11.8654 57.4162 12.1218 59.836Z" fill="white"/>
<path d="M27.5508 59.987C27.2945 62.5865 25.865 64.08 23.1145 64.1746C20.4921 64.2596 18.4613 62.2368 18.6683 59.7224C18.8951 57.104 20.502 55.6577 23.223 55.7239C25.9834 55.79 27.3536 57.4064 27.5508 59.987Z" fill="white"/>
<path d="M15.4442 130.381C13.0584 130.116 11.4318 128.888 11.3825 126.553C11.3332 124.218 12.8711 122.696 15.2864 122.639C17.7215 122.583 19.2989 124.057 19.3679 126.383C19.4369 128.736 17.8497 130.003 15.4442 130.381Z" fill="white"/>
<path d="M54.2079 85.6136C56.3669 85.9445 57.8359 87.1922 57.964 89.5176C58.0823 91.6161 55.8149 93.6673 53.6657 93.3837C51.2997 93.0718 49.9096 91.6633 49.88 89.338C49.8603 87.3529 51.9602 85.5569 54.2079 85.6136Z" fill="white"/>
<path d="M15.3159 48.6631C17.6918 48.9278 19.2987 50.1472 19.348 52.482C19.3874 54.8073 17.8692 56.3103 15.4539 56.3576C13.0287 56.4049 11.4612 54.9397 11.402 52.6238C11.3428 50.289 12.9202 49.0223 15.3159 48.6631Z" fill="white"/>
<path d="M42.5846 119.151C42.1902 121.458 40.8593 122.98 38.4144 122.914C35.9991 122.847 34.4513 121.335 34.5104 119C34.5696 116.684 36.1568 115.21 38.5919 115.257C41.0368 115.304 42.3085 116.864 42.5846 119.151Z" fill="white"/>
<path d="M38.444 56.0264C40.8298 56.3005 42.4564 57.5199 42.5057 59.8547C42.555 62.1895 41.017 63.7114 38.5918 63.7587C36.1568 63.8154 34.5794 62.3313 34.5104 60.0154C34.4512 57.6711 36.0385 56.4045 38.444 56.0264Z" fill="white"/>
<path d="M46.2714 71.2458C43.8856 70.9717 42.2688 69.7428 42.2195 67.408C42.1801 65.0732 43.718 63.5607 46.1334 63.504C48.5684 63.4568 50.1458 64.9314 50.2049 67.2568C50.2641 69.601 48.6769 70.8771 46.2714 71.2458Z" fill="white"/>
<path d="M50.3133 111.769C49.9289 114.037 48.6276 115.446 46.2024 115.559C44.0039 115.663 41.8843 113.489 42.1801 111.419C42.5153 109.15 43.994 107.714 46.4094 107.836C48.7951 107.95 50.057 109.5 50.3133 111.769Z" fill="white"/>
<path d="M54.0401 71.1699C56.4061 71.4062 57.6976 72.654 57.5793 74.9226C57.461 77.2197 55.9625 78.3634 53.626 78.2311C51.4276 78.1082 50.2249 76.7943 50.2544 74.6958C50.2939 72.3893 51.7036 71.2834 54.0401 71.1699Z" fill="white"/>
<path d="M54.0298 107.884C51.5652 107.667 50.2146 106.494 50.2441 104.245C50.2836 101.995 51.644 100.738 53.9805 100.766C56.3268 100.794 57.6183 102.108 57.6085 104.349C57.5986 106.627 56.1494 107.685 54.0298 107.884Z" fill="white"/>
<path d="M30.7944 49.0127C33.1309 49.1828 34.4914 50.355 34.4322 52.6331C34.3829 54.9206 32.9731 56.1117 30.6268 56.0455C28.4382 55.9793 27.1862 54.7411 27.1566 52.6426C27.1172 50.355 28.4579 49.1828 30.7944 49.0127Z" fill="white"/>
<path d="M34.5204 126.468C34.2444 128.869 32.9233 130.098 30.5671 129.975C28.1715 129.843 26.9885 128.406 27.1463 126.166C27.2941 124.058 28.6645 122.923 30.8531 122.952C33.2783 122.99 34.3528 124.407 34.5204 126.468Z" fill="white"/>
<path d="M0.0845823 130.022C-2.40962 129.814 -3.75038 128.633 -3.67151 126.355C-3.6025 124.067 -2.17299 122.895 0.173335 122.98C2.36193 123.065 3.58438 124.313 3.61395 126.421C3.64353 128.737 2.22388 129.814 0.0845823 130.022Z" fill="white"/>
<path d="M3.62334 52.6897C3.35716 54.9205 2.06567 56.1399 -0.280654 56.017C-2.65656 55.8847 -3.81986 54.4668 -3.66212 52.2454C-3.51424 50.1564 -2.16364 49.0315 0.0150895 49.0693C2.40085 49.1165 3.5149 50.4683 3.62334 52.6897Z" fill="white"/>
<path d="M61.6117 100.114C59.502 99.7171 58.2007 98.6111 58.388 96.6639C58.5654 94.7733 59.9259 93.5917 61.9765 93.7902C63.8102 93.9698 64.9735 95.1892 64.9143 96.9758C64.8354 98.9325 63.4454 99.8778 61.6117 100.114Z" fill="white"/>
<path d="M22.9855 42.0273C24.7798 42.1408 26.091 43.0293 26.2684 44.8253C26.4656 46.8009 25.2727 48.1054 23.2517 48.2094C21.211 48.3134 19.9097 47.1035 19.8801 45.1373C19.8604 43.3507 21.0631 42.3204 22.9855 42.0273Z" fill="white"/>
<path d="M64.9633 82.0119C64.7661 83.893 63.731 85.207 61.7001 85.2448C59.6791 85.2826 58.3975 84.0348 58.3679 82.097C58.3482 80.3104 59.5707 79.11 61.3945 78.9965C63.4352 78.8547 64.5788 80.0741 64.9633 82.0119Z" fill="white"/>
<path d="M10.9683 133.794C10.7613 135.666 9.71635 136.952 7.69535 136.961C5.68422 136.971 4.42233 135.742 4.43219 133.804C4.43219 132.027 5.64474 130.855 7.46857 130.76C9.48957 130.656 10.6233 131.857 10.9683 133.794Z" fill="white"/>
<path d="M10.9287 45.0995C10.7808 46.8387 9.81469 48.077 7.95143 48.2188C5.90086 48.3701 4.55027 47.2074 4.4714 45.2601C4.40239 43.3034 5.684 42.0746 7.73457 42.084C9.60769 42.0935 10.6527 43.2656 10.9287 45.0995Z" fill="white"/>
<path d="M23.0944 137.027C21.1129 136.781 19.8017 135.732 19.851 133.803C19.9002 131.884 21.2213 130.693 23.2324 130.769C25.0661 130.835 26.2787 132.007 26.3181 133.775C26.3674 135.703 25.0957 136.753 23.0944 137.027Z" fill="white"/>
<path d="M53.8926 121.912C51.9899 121.761 50.9252 120.778 51.0139 118.906C51.0928 117.195 52.1575 116.26 53.932 116.279C55.8939 116.298 56.9192 117.385 56.8403 119.247C56.7713 120.958 55.677 121.799 53.8926 121.912Z" fill="white"/>
<path d="M45.9368 49.7217C48.0071 49.8162 49.1309 50.7142 49.1112 52.5953C49.0915 54.2873 48.0958 55.2799 46.3312 55.3177C44.3989 55.365 43.3243 54.3535 43.3145 52.4913C43.3145 50.771 44.3989 49.9485 45.9368 49.7217Z" fill="white"/>
<path d="M46.252 123.642C48.0364 123.793 49.1011 124.663 49.1307 126.383C49.1603 128.255 48.0956 129.294 46.1436 129.275C44.3691 129.257 43.3339 128.283 43.2945 126.572C43.255 124.681 44.3592 123.746 46.252 123.642Z" fill="white"/>
<path d="M53.6657 57.0947C55.7262 57.1893 56.8599 58.0967 56.8401 59.9873C56.8204 61.6887 55.8247 62.6907 54.0403 62.7285C52.0982 62.7758 51.0039 61.7549 51.0039 59.8833C51.0039 58.1534 52.0884 57.3121 53.6657 57.0947Z" fill="white"/>
<path d="M41.2537 45.0615C41.1058 46.5929 40.2679 47.6516 38.6806 47.7272C36.9061 47.8123 35.7921 46.7819 35.8118 45.0804C35.8315 43.5491 36.8864 42.5849 38.4835 42.5755C40.1101 42.5566 40.9777 43.568 41.2537 45.0615Z" fill="white"/>
<path d="M61.6111 114.359C59.9154 114.123 58.8113 113.243 58.9 111.523C58.9789 110.001 60.014 109.037 61.6209 109.056C63.3954 109.084 64.4405 110.124 64.3616 111.826C64.2926 113.376 63.2279 114.179 61.6111 114.359Z" fill="white"/>
<path d="M61.4635 69.988C59.8172 69.6572 58.7426 68.7308 58.9398 67.0388C59.1074 65.5641 60.1819 64.6094 61.7692 64.7323C63.5043 64.8552 64.5197 65.9422 64.3324 67.6248C64.1746 69.1089 63.0803 69.8935 61.4635 69.988Z" fill="white"/>
<path d="M38.3258 131.176C40.1792 131.431 41.2932 132.291 41.2144 133.993C41.1454 135.496 40.1201 136.469 38.5427 136.46C36.7977 136.45 35.7429 135.411 35.7922 133.728C35.8316 132.197 36.9752 131.469 38.3258 131.176Z" fill="white"/>
<path d="M71.7755 89.4517C71.6178 90.9546 70.8093 91.8148 69.3207 91.8054C67.832 91.7865 66.9448 90.9168 66.9547 89.4895C66.9744 88.0621 67.8814 87.2113 69.37 87.2208C70.8685 87.2302 71.6276 88.1377 71.7755 89.4517Z" fill="white"/>
<path d="M32.9135 140.997C32.8642 142.348 32.2432 143.133 31.0503 143.237C29.6898 143.36 28.7828 142.67 28.7335 141.328C28.6842 139.995 29.5124 139.248 30.9024 139.267C32.1446 139.286 32.6966 140.089 32.9135 140.997Z" fill="white"/>
<path d="M13.0093 141.299C13.2262 139.702 14.1036 138.927 15.5824 139.04C17.0908 139.163 17.84 140.137 17.6823 141.545C17.5442 142.793 16.6668 143.521 15.3359 143.492C13.8079 143.445 13.1374 142.519 13.0093 141.299Z" fill="white"/>
<path d="M2.04635 141.242C1.89848 142.499 1.19852 143.284 -0.171814 143.227C-1.35484 143.171 -2.09424 142.443 -2.09424 141.299C-2.09424 139.994 -1.27596 139.238 0.0845172 139.295C1.2774 139.333 1.89848 140.089 2.04635 141.242Z" fill="white"/>
<path d="M2.02668 37.7732C1.86895 38.9076 1.22811 39.6827 0.0253737 39.6921C-1.35482 39.7016 -2.1632 38.8792 -2.05476 37.5653C-1.96603 36.4404 -1.14781 35.7409 0.0647862 35.8071C1.26753 35.8827 1.88866 36.6389 2.02668 37.7732Z" fill="white"/>
<path d="M17.6922 37.764C17.495 39.3615 16.5684 40.0799 15.0797 39.9381C13.7291 39.8058 13.0094 38.9361 13.0982 37.6411C13.1967 36.1381 14.1826 35.4481 15.6811 35.5804C17.0416 35.7033 17.6528 36.6013 17.6922 37.764Z" fill="white"/>
<path d="M32.9133 37.6884C32.6668 39.1063 31.8979 39.8625 30.5472 39.7208C29.3938 39.5979 28.6643 38.8417 28.7431 37.6884C28.8318 36.384 29.6994 35.675 31.0402 35.7979C32.2331 35.9019 32.7654 36.7432 32.9133 37.6884Z" fill="white"/>
<path d="M71.4799 74.516C71.3813 75.9717 70.7011 76.7374 69.3111 76.7374C68.1083 76.7374 67.3492 76.0851 67.2506 74.9508C67.1422 73.6652 67.8126 72.8145 69.1928 72.72C70.6025 72.616 71.2729 73.4195 71.4799 74.516Z" fill="white"/>
<path d="M71.47 104.245C71.3813 105.53 70.701 106.296 69.3208 106.305C68.118 106.305 67.359 105.653 67.2604 104.519C67.1519 103.233 67.8223 102.373 69.2025 102.288C70.5728 102.203 71.3122 102.931 71.47 104.245Z" fill="white"/>
</g>
<g opacity="0.25">
<path d="M271.919 51.1206C268.157 53.5305 264.313 54.003 260.584 51.2309C256.872 48.4744 256.527 44.7257 257.956 40.1107C253.094 41.1187 248.708 41.0873 245.816 36.929C243.352 33.3693 243.944 29.8725 246.375 26.5175C246.671 26.234 246.983 25.9505 247.278 25.667C249.02 24.47 251.04 23.3044 253.061 23.6982C256.757 24.4069 256.083 22.7689 256.281 20.2644C256.56 16.815 256.166 15.3974 252.141 15.9487C250.679 16.1535 248.987 14.8933 247.393 14.3105C246.966 13.901 246.539 13.4915 246.112 13.082C243.977 9.64828 243.319 6.13578 245.915 2.67056C248.79 -1.18843 252.864 -1.5192 257.858 -0.227618C256.593 -4.95292 256.773 -9.09542 261.11 -11.8361C264.806 -14.183 268.453 -13.5845 271.936 -11.2691C272.231 -10.9856 272.527 -10.6863 272.823 -10.4028C273.529 -8.73314 275.073 -6.92179 274.81 -5.39394C274.088 -1.29868 276.125 -2.03898 279.082 -1.80272C282.646 -1.5192 282.942 -2.44852 282.843 -5.36246C282.794 -7.01631 284.141 -8.70166 284.864 -10.3713C285.176 -10.6863 285.488 -10.9855 285.8 -11.3006C289.529 -13.8207 293.373 -14.246 297.119 -11.5053C300.848 -8.78042 301.291 -5.04741 299.846 -0.463873C304.593 -1.25142 309.028 -1.44042 311.92 2.74934C314.384 6.30907 313.825 9.79005 311.476 13.1923C311.115 13.5388 310.753 13.8695 310.392 14.216C308.618 14.8776 306.761 16.248 305.102 16.059C301.488 15.6652 301.521 16.8937 301.57 19.8391C301.62 22.6901 301.439 24.0604 305.102 23.6666C306.778 23.4934 308.618 24.8637 310.392 25.5252C310.753 25.8717 311.131 26.2183 311.492 26.5806C313.989 30.1561 314.482 33.8418 311.607 37.4015C308.766 40.9298 304.922 41.4968 300.108 39.9847C301.094 44.7415 300.93 49.0887 296.33 51.8294C292.815 53.9243 289.316 53.3573 285.965 51.2939C285.505 50.8529 285.061 50.4276 284.601 49.9866C282.827 47.4664 282.367 44.6628 282.86 41.7331C277.817 41.1818 273.628 41.3235 274.137 47.7342C274.203 48.506 273.316 49.3407 272.856 50.144C272.576 50.4748 272.248 50.8056 271.919 51.1206ZM296.084 36.3619C293.192 34.6766 299.271 29.3842 292.815 29.3685C289.513 29.3527 288.757 30.4396 288.774 33.3535C288.823 39.4807 294.26 33.6843 296.084 36.3619ZM261.833 36.4408C263.607 34.1096 270.063 39.6224 268.946 32.0777C268.059 26.0766 264.067 30.8019 261.882 29.2583C262.769 31.747 261.817 33.8418 261.833 36.4408ZM296.297 3.50536C288.659 4.26141 288.839 4.29294 288.626 5.99405C287.87 11.9007 292.519 9.88454 296.149 10.8138C295.065 8.07317 295.903 5.83651 296.297 3.50536ZM261.767 3.19037C262.194 5.85229 262.457 8.15193 262.03 10.7193C264.133 8.90798 268.355 13.3813 269.077 7.42739C269.948 0.0716763 263.476 5.91529 261.767 3.19037ZM275.944 19.4296C276.075 21.0047 274.843 23.2256 278.178 22.6113C279.87 22.2963 282.055 23.4462 281.759 20.0754C281.562 17.7915 281.447 16.8937 278.704 17.0669C276.65 17.1772 275.172 16.9882 275.944 19.4296Z" fill="white"/>
<path d="M311.526 26.5804C311.164 26.2339 310.787 25.8873 310.425 25.5251C308.733 21.7606 308.766 17.9803 310.425 14.2159C310.787 13.8693 311.148 13.5386 311.509 13.1921C312.791 12.8141 314.039 12.3415 315.353 12.0895C319.066 11.4122 322.269 12.2785 324.405 15.4445C326.359 18.3427 326.36 21.3826 324.421 24.2808C322.302 27.4625 319.099 28.3288 315.386 27.6515C314.056 27.431 312.807 26.9585 311.526 26.5804Z" fill="white"/>
<path d="M284.651 49.9862C285.111 50.4272 285.554 50.8682 286.014 51.2935C286.26 52.1756 286.507 53.0576 286.753 53.9554C287.788 57.7199 287.164 61.0749 283.681 63.3903C280.478 65.5167 277.045 65.4694 273.891 63.2642C270.474 60.8701 269.932 57.4994 271.065 53.7664C271.328 52.8844 271.624 52.0022 271.903 51.1202C272.232 50.7894 272.56 50.4744 272.905 50.1436C276.798 48.5685 280.708 48.6158 284.651 49.9862Z" fill="white"/>
<path d="M247.295 25.683C246.999 25.9665 246.687 26.25 246.391 26.5335C241.693 27.9669 236.978 29.2585 233.479 24.4072C231.442 21.5878 231.393 18.5005 233.348 15.6023C236.683 10.6408 241.414 11.7434 246.161 13.1137C246.588 13.5233 247.015 13.9327 247.443 14.3423C248.97 18.1225 248.822 21.9028 247.295 25.683Z" fill="white"/>
<path d="M325.456 44.3795C325.555 48.5535 321.629 52.3179 317.275 52.2392C313.152 52.1604 309.456 48.6322 309.374 44.6787C309.275 40.489 313.185 36.7403 317.555 36.8348C321.678 36.8978 325.358 40.4102 325.456 44.3795Z" fill="white"/>
<path d="M240.396 52.1598C236.092 52.207 232.215 48.4268 232.363 44.3158C232.494 40.3781 236.158 36.9286 240.264 36.8813C244.568 36.834 248.429 40.6143 248.297 44.7253C248.166 48.663 244.503 52.1283 240.396 52.1598Z" fill="white"/>
<path d="M261.176 56.5698C261.34 60.6966 257.512 64.5083 253.176 64.5083C249.085 64.5083 245.356 61.0589 245.192 57.1212C245.028 52.9944 248.872 49.1826 253.192 49.1826C257.283 49.1826 261.011 52.6163 261.176 56.5698Z" fill="white"/>
<path d="M316.964 2.9383C312.61 2.67053 308.996 -1.34598 309.424 -5.44124C309.851 -9.41049 313.777 -12.6709 317.851 -12.4189C322.204 -12.1512 325.834 -8.13464 325.391 -4.03938C324.964 -0.0701284 321.038 3.17457 316.964 2.9383Z" fill="white"/>
<path d="M240.051 -12.3882C244.109 -12.5457 247.953 -9.23794 248.281 -5.28443C248.626 -1.20493 244.947 2.7328 240.61 2.90606C236.322 3.06357 232.363 -0.606393 232.363 -4.74891C232.363 -8.67091 235.944 -12.2306 240.051 -12.3882Z" fill="white"/>
<path d="M312.577 56.7428C312.642 60.9011 308.7 64.6341 304.363 64.5238C300.24 64.4136 296.593 60.8853 296.544 56.9318C296.478 52.7578 300.404 49.0406 304.757 49.1508C308.897 49.2611 312.527 52.7893 312.577 56.7428Z" fill="white"/>
<path d="M258.597 68.7138C259.237 64.3823 261.8 62.0511 266.35 62.0984C270.704 62.1456 273.89 65.6896 273.332 69.8794C272.757 74.2581 269.899 76.4632 265.398 76.1482C260.798 75.849 258.728 72.9823 258.597 68.7138Z" fill="white"/>
<path d="M330.253 39.37C325.735 38.9919 323.091 36.7237 322.861 32.3292C322.647 28.1394 326.195 24.8003 330.565 25.1153C335.132 25.4461 337.711 27.9977 337.629 32.3607C337.547 36.7553 334.754 39.0077 330.253 39.37Z" fill="white"/>
<path d="M234.86 32.1251C234.515 36.4723 232.215 39.1343 227.566 39.1658C222.966 39.1973 220.272 36.7087 220.223 32.2826C220.174 27.8724 222.785 25.305 227.402 25.2262C232.034 25.179 234.416 27.7778 234.86 32.1251Z" fill="white"/>
<path d="M299.189 69.0761C298.86 73.3761 296.56 76.0853 291.961 76.2113C287.41 76.3374 284.7 73.8959 284.306 69.5328C283.928 65.3431 287.361 61.9094 291.747 62.0511C296.347 62.2244 298.729 64.7288 299.189 69.0761Z" fill="white"/>
<path d="M330.138 14.7355C325.604 14.2787 323.009 11.9634 322.861 7.56884C322.729 3.37908 326.344 0.102868 330.713 0.480892C335.28 0.890418 337.793 3.50507 337.645 7.85235C337.465 12.2469 334.606 14.4363 330.138 14.7355Z" fill="white"/>
<path d="M227.78 0.496094C232.297 1.03163 234.925 3.42579 234.745 7.83607C234.564 12.2621 231.771 14.672 227.205 14.5302C222.588 14.3727 220.075 11.6951 220.223 7.30054C220.371 2.843 223.246 0.732359 227.78 0.496094Z" fill="white"/>
<path d="M240.528 75.6442C236.487 75.2032 233.793 73.1713 233.71 69.2966C233.628 65.4219 236.175 62.9175 240.183 62.823C244.224 62.7285 246.836 65.1699 246.951 69.0289C247.066 72.9036 244.421 74.9984 240.528 75.6442Z" fill="white"/>
<path d="M278.983 87.9935C275.008 87.5525 272.297 85.5049 272.215 81.6144C272.133 77.7239 274.696 75.188 278.72 75.0935C282.778 74.9989 285.406 77.4561 285.521 81.3309C285.636 85.2529 282.992 87.3635 278.983 87.9935Z" fill="white"/>
<path d="M221.389 19.8391C220.732 23.8241 218.531 26.3128 214.49 26.2026C210.481 26.0923 207.952 23.5878 208.05 19.7446C208.149 15.9014 210.761 13.4915 214.785 13.5702C218.843 13.649 220.863 16.2794 221.389 19.8391Z" fill="white"/>
<path d="M324.208 69.2813C323.551 73.1245 321.333 75.6604 317.259 75.5502C313.234 75.4399 310.655 72.9198 310.754 69.0293C310.852 65.1703 313.497 62.7131 317.555 62.7919C321.629 62.8706 323.748 65.4695 324.208 69.2813Z" fill="white"/>
<path d="M227.419 50.3799C231.575 50.9942 234.17 53.1048 234.072 56.9796C233.973 60.8228 231.361 63.2484 227.353 63.1539C223.361 63.0752 220.832 60.5708 220.897 56.7118C220.963 52.8213 223.706 50.8839 227.419 50.3799Z" fill="white"/>
<path d="M337.086 56.9796C336.445 60.7598 334.277 63.1067 330.236 63.2958C326.573 63.469 323.041 59.8463 323.533 56.3968C324.092 52.6166 326.556 50.2225 330.581 50.4272C334.556 50.6162 336.659 53.1993 337.086 56.9796Z" fill="white"/>
<path d="M214.391 50.3794C210.515 49.9541 208.395 47.8907 208.609 44.142C208.839 40.346 211.303 38.4874 215.163 38.7394C218.794 38.9757 220.749 41.1336 220.683 44.6146C220.601 48.4263 218.252 50.2062 214.391 50.3794Z" fill="white"/>
<path d="M215.032 1.12596C210.909 0.88969 208.592 -0.953194 208.592 -4.74918C208.609 -8.52942 210.843 -10.577 214.769 -10.5455C218.399 -10.514 220.519 -8.52941 220.666 -5.03269C220.847 -1.22095 218.613 0.684927 215.032 1.12596Z" fill="white"/>
<path d="M310.77 81.4725C310.31 85.4733 308.109 87.5209 304.182 87.3162C300.191 87.0956 298.219 84.7014 298.482 80.9685C298.729 77.456 301.012 75.5659 304.659 75.6132C308.7 75.6762 310.49 78.0388 310.77 81.4725Z" fill="white"/>
<path d="M253.389 87.395C249.233 87.0485 246.999 85.0796 247.13 81.2836C247.245 77.4719 249.627 75.5188 253.537 75.6605C257.184 75.8023 259.221 77.8814 259.27 81.3939C259.32 85.2529 256.954 87.0485 253.389 87.395Z" fill="white"/>
<path d="M201.808 37.3533C198.523 37.0226 196.42 35.2899 196.502 32.0295C196.568 29.0526 198.572 27.1467 201.677 27.131C205.077 27.1152 207.147 29.1156 207.065 32.3761C207.016 35.353 204.995 37.0068 201.808 37.3533Z" fill="white"/>
<path d="M201.644 2.41797C204.601 2.59123 206.752 4.04036 207.048 7.03305C207.36 10.2935 205.422 12.4514 202.071 12.6247C198.687 12.7979 196.551 10.8133 196.502 7.55281C196.469 4.57587 198.424 2.87475 201.644 2.41797Z" fill="white"/>
<path d="M271.526 93.6797C271.181 96.7984 269.439 98.9406 266.072 98.9564C262.721 98.9721 260.618 96.9244 260.634 93.6955C260.634 90.7343 262.655 88.7812 265.694 88.6237C269.061 88.4504 270.951 90.4508 271.526 93.6797Z" fill="white"/>
<path d="M291.732 99.0666C288.43 98.6571 286.245 96.9088 286.327 93.6956C286.409 90.4981 288.61 88.5134 291.961 88.6395C295.017 88.7497 297.037 90.7028 297.103 93.6483C297.185 96.8615 295.066 98.6098 291.732 99.0666Z" fill="white"/>
<path d="M330.318 76.7637C333.291 77.0157 335.065 78.4648 335.115 81.3315C335.164 84.4502 333.39 86.1828 330.137 86.1513C327.18 86.1198 325.456 84.4974 325.39 81.6464C325.324 78.4962 327.164 76.9369 330.318 76.7637Z" fill="white"/>
<path d="M214.819 64.5088C217.743 64.8238 219.468 66.3202 219.419 69.1869C219.353 72.3686 217.382 73.9595 214.162 73.7389C211.188 73.5342 209.661 71.6913 209.825 68.8561C210.022 65.9736 211.878 64.6348 214.819 64.5088Z" fill="white"/>
<path d="M227.468 76.8262C230.408 77.0309 232.232 78.4486 232.265 81.331C232.314 84.4812 230.474 86.1823 227.205 86.072C224.215 85.9617 222.622 84.2134 222.688 81.3625C222.753 78.48 224.527 77.0467 227.468 76.8262Z" fill="white"/>
<path d="M201.447 52.459C204.289 52.7583 206.113 54.0813 206.228 56.6015C206.343 59.3894 204.536 61.1693 201.628 61.1063C199.016 61.059 197.357 59.358 197.34 56.822C197.324 54.2389 199.18 52.9945 201.447 52.459Z" fill="white"/>
<path d="M244.914 93.9627C244.437 96.4514 242.992 98.121 240.298 98.0895C237.637 98.058 235.879 96.4356 235.862 93.884C235.846 91.0488 237.702 89.332 240.659 89.4895C243.287 89.647 244.684 91.4268 244.914 93.9627Z" fill="white"/>
<path d="M317.111 89.3164C320.199 89.7417 322.055 91.1751 321.924 94.0103C321.809 96.5147 320.101 98.137 317.472 98.1213C314.565 98.1055 312.807 96.3729 312.889 93.5692C312.955 91.0175 314.86 89.8047 317.111 89.3164Z" fill="white"/>
<path d="M308.092 105.682C308.01 107.934 306.975 109.241 304.987 109.415C302.721 109.62 301.209 108.47 301.127 106.233C301.045 104.012 302.425 102.768 304.741 102.799C306.811 102.831 307.731 104.17 308.092 105.682Z" fill="white"/>
<path d="M274.925 106.186C275.287 103.524 276.749 102.232 279.213 102.421C281.726 102.626 282.975 104.249 282.712 106.595C282.482 108.675 281.02 109.887 278.802 109.84C276.256 109.761 275.139 108.218 274.925 106.186Z" fill="white"/>
<path d="M256.659 106.091C256.412 108.186 255.246 109.494 252.963 109.399C250.991 109.305 249.759 108.092 249.759 106.186C249.759 104.012 251.123 102.752 253.39 102.847C255.377 102.91 256.412 104.17 256.659 106.091Z" fill="white"/>
<path d="M192.74 19.9014C192.576 22.2168 191.278 23.5713 188.732 23.4768C186.482 23.3981 185.2 22.1065 185.184 19.9644C185.167 17.523 186.613 16.2156 189.143 16.2944C191.41 16.3574 192.56 17.6805 192.74 19.9014Z" fill="white"/>
<path d="M192.396 44.5988C192.083 46.489 191.016 47.7648 189.011 47.749C186.712 47.7333 185.381 46.3471 185.595 44.1578C185.792 42.2991 187.155 41.1335 189.192 41.2753C191.163 41.4328 192.215 42.693 192.396 44.5988Z" fill="white"/>
</g>
</g>
</g>
<defs>
<clipPath id="clip0_16658_10809">
<path d="M0 16C0 8.45753 0 4.68629 2.34315 2.34315C4.68629 0 8.45753 0 16 0H316C323.542 0 327.314 0 329.657 2.34315C332 4.68629 332 8.45753 332 16V134C332 141.542 332 145.314 329.657 147.657C327.314 150 323.542 150 316 150H16C8.45753 150 4.68629 150 2.34315 147.657C0 145.314 0 141.542 0 134V16Z" fill="white"/>
</clipPath>
</defs>
</svg>
