<svg width="12" height="12" viewBox="0 0 12 12" fill="none" xmlns="http://www.w3.org/2000/svg">
<ellipse opacity="0.4" cx="6" cy="10.5" rx="2.5" ry="0.5" fill="#FF8B3E"/>
<path fill-rule="evenodd" clip-rule="evenodd" d="M4.26581 1.46839C5.35824 0.833637 6.70101 0.844732 7.78319 1.49745C8.85473 2.16346 9.50598 3.35209 9.49992 4.63072C9.47498 5.90097 8.77665 7.095 7.90374 8.01805C7.39992 8.5532 6.83631 9.02641 6.22442 9.42802C6.1614 9.46446 6.09238 9.48885 6.02074 9.5C5.9518 9.49706 5.88466 9.47669 5.82538 9.44072C4.89121 8.83728 4.07167 8.06702 3.40617 7.16698C2.84929 6.41568 2.53292 5.508 2.5 4.56721C2.49928 3.28612 3.17338 2.10313 4.26581 1.46839ZM4.89708 5.09739C5.08084 5.55042 5.51459 5.84592 5.9958 5.84592C6.31105 5.84819 6.61409 5.72191 6.83741 5.49524C7.06072 5.26856 7.18574 4.96032 7.18462 4.63919C7.18631 4.14902 6.89773 3.70616 6.45363 3.51739C6.00954 3.32862 5.49752 3.43117 5.15666 3.77717C4.8158 4.12317 4.71332 4.64436 4.89708 5.09739Z" fill="#FF8B3E"/>
</svg>
