<svg width="65" height="65" viewBox="0 0 65 65" fill="none" xmlns="http://www.w3.org/2000/svg">
<path d="M0 28C0 14.8007 0 8.20101 4.1005 4.1005C8.20101 0 14.8007 0 28 0H37C50.1993 0 56.799 0 60.8995 4.1005C65 8.20101 65 14.8007 65 28V37C65 50.1993 65 56.799 60.8995 60.8995C56.799 65 50.1993 65 37 65H28C14.8007 65 8.20101 65 4.1005 60.8995C0 56.799 0 50.1993 0 37V28Z" fill="#FF8B3E"/>
<path d="M44.875 32.5C44.875 32.7735 44.7664 33.0358 44.573 33.2292C44.3796 33.4226 44.1173 33.5312 43.8438 33.5312H33.5312V43.8438C33.5312 44.1173 33.4226 44.3796 33.2292 44.573C33.0358 44.7664 32.7735 44.875 32.5 44.875C32.2265 44.875 31.9642 44.7664 31.7708 44.573C31.5774 44.3796 31.4688 44.1173 31.4688 43.8438V33.5312H21.1562C20.8827 33.5312 20.6204 33.4226 20.427 33.2292C20.2336 33.0358 20.125 32.7735 20.125 32.5C20.125 32.2265 20.2336 31.9642 20.427 31.7708C20.6204 31.5774 20.8827 31.4688 21.1562 31.4688H31.4688V21.1562C31.4688 20.8827 31.5774 20.6204 31.7708 20.427C31.9642 20.2336 32.2265 20.125 32.5 20.125C32.7735 20.125 33.0358 20.2336 33.2292 20.427C33.4226 20.6204 33.5312 20.8827 33.5312 21.1562V31.4688H43.8438C44.1173 31.4688 44.3796 31.5774 44.573 31.7708C44.7664 31.9642 44.875 32.2265 44.875 32.5Z" fill="white"/>
</svg>
