<svg width="24" height="25" viewBox="0 0 24 25" fill="none" xmlns="http://www.w3.org/2000/svg">
<path fill-rule="evenodd" clip-rule="evenodd" d="M11.8889 13.1185H11.9209C14.8489 13.1185 17.2299 10.7375 17.2299 7.80951C17.2299 4.88151 14.8489 2.49951 11.9209 2.49951C8.99189 2.49951 6.60989 4.88151 6.60989 7.80651C6.59989 10.7265 8.9669 13.1095 11.8889 13.1185ZM8.03789 7.80951C8.03789 5.66851 9.77989 3.92751 11.9209 3.92751C14.0609 3.92751 15.8019 5.66851 15.8019 7.80951C15.8019 9.94951 14.0609 11.6915 11.9209 11.6915H11.8919C9.75989 11.6835 8.03089 9.94351 8.03789 7.80951Z" fill="#212121"/>
<path fill-rule="evenodd" clip-rule="evenodd" d="M3.99988 18.6728C3.99988 22.3699 9.96188 22.3699 11.9209 22.3699C15.3199 22.3699 19.8399 21.9888 19.8399 18.6929C19.8399 14.9958 13.8799 14.9958 11.9209 14.9958C8.52088 14.9958 3.99988 15.3769 3.99988 18.6728ZM5.49988 18.6728C5.49988 17.2278 7.65988 16.4958 11.9209 16.4958C16.1809 16.4958 18.3399 17.2348 18.3399 18.6929C18.3399 20.1378 16.1809 20.8699 11.9209 20.8699C7.65988 20.8699 5.49988 20.1308 5.49988 18.6728Z" fill="#212121"/>
</svg>
