<svg width="14" height="14" viewBox="0 0 14 14" fill="none" xmlns="http://www.w3.org/2000/svg">
<path d="M12.25 1.75L6.125 7.875" stroke="#161414" stroke-width="1.2" stroke-linecap="round" stroke-linejoin="round"/>
<path d="M2.78893 6.57766C2.19359 6.34614 1.89591 6.23038 1.80901 6.06357C1.73367 5.91897 1.73357 5.74672 1.80874 5.60204C1.89544 5.43513 2.19298 5.31902 2.78806 5.0868L11.1341 1.82979C11.6713 1.62016 11.9399 1.51534 12.1115 1.57268C12.2606 1.62247 12.3776 1.73944 12.4273 1.88849C12.4847 2.06011 12.3799 2.3287 12.1702 2.86588L8.91323 11.212C8.681 11.807 8.56489 12.1046 8.39798 12.1913C8.2533 12.2665 8.08105 12.2664 7.93645 12.191C7.76965 12.1041 7.65388 11.8064 7.42236 11.2111L6.25258 8.20309C6.20558 8.08224 6.18209 8.02181 6.14579 7.97093C6.11362 7.92583 6.07419 7.8864 6.02909 7.85423C5.97821 7.81793 5.91778 7.79444 5.79693 7.74744L2.78893 6.57766Z" stroke="#161414" stroke-width="1.2" stroke-linecap="round" stroke-linejoin="round"/>
</svg>
