<svg width="25" height="24" viewBox="0 0 25 24" fill="none" xmlns="http://www.w3.org/2000/svg">
<path fill-rule="evenodd" clip-rule="evenodd" d="M12.0887 12.619H12.1207C15.0487 12.619 17.4297 10.238 17.4297 7.31C17.4297 4.382 15.0487 2 12.1207 2C9.19172 2 6.80972 4.382 6.80972 7.307C6.79972 10.227 9.16672 12.61 12.0887 12.619ZM8.23772 7.31C8.23772 5.169 9.97972 3.428 12.1207 3.428C14.2607 3.428 16.0017 5.169 16.0017 7.31C16.0017 9.45 14.2607 11.192 12.1207 11.192H12.0917C9.95972 11.184 8.23072 9.444 8.23772 7.31Z" fill="#FF8B3E"/>
<path fill-rule="evenodd" clip-rule="evenodd" d="M4.19971 18.1733C4.19971 21.8703 10.1617 21.8703 12.1207 21.8703C15.5197 21.8703 20.0397 21.4893 20.0397 18.1933C20.0397 14.4963 14.0797 14.4963 12.1207 14.4963C8.72071 14.4963 4.19971 14.8773 4.19971 18.1733ZM5.69971 18.1733C5.69971 16.7283 7.85971 15.9963 12.1207 15.9963C16.3807 15.9963 18.5397 16.7353 18.5397 18.1933C18.5397 19.6383 16.3807 20.3703 12.1207 20.3703C7.85971 20.3703 5.69971 19.6313 5.69971 18.1733Z" fill="#FF8B3E"/>
</svg>
