<svg width="160" height="160" viewBox="0 0 160 160" fill="none" xmlns="http://www.w3.org/2000/svg">
<path d="M139.354 46.5573C137.084 43.2935 134.029 41.2418 130.519 40.6275L130.472 40.6204C128.878 40.3568 127.248 40.3949 125.667 40.7328L125.494 40.7697C118.115 42.4546 111.895 50.3518 110.019 60.4215C108.639 67.7869 109.863 75.133 113.293 80.073C115.561 83.34 118.621 85.3906 122.145 86.002L122.183 86.0081C123.778 86.2713 125.408 86.2332 126.988 85.8957C134.461 84.3073 140.76 76.3933 142.68 66.1864C144.026 58.8366 142.788 51.4994 139.354 46.5573ZM118.26 92.7525C113.446 91.0947 108.895 89.5257 105.332 85.7272C95.4958 75.2074 89.5564 68.8581 78.0425 71.3054C66.5287 73.7528 63.6744 81.9713 58.9508 95.5859C57.2371 100.512 53.7099 103.8 49.9748 107.287C45.6916 111.282 41.2662 115.409 40.3513 121.875C39.9596 124.219 40.0209 126.616 40.5318 128.937C42.6083 138.706 51.9067 145.038 61.2547 143.051C66.0782 142.025 70.8562 139.263 75.9124 136.339C80.7737 133.528 85.7996 130.622 90.4682 129.63C95.1367 128.637 100.896 129.251 106.462 129.846C112.257 130.452 117.721 131.037 122.558 130.009C131.893 128.025 137.798 118.462 135.722 108.692C135.235 106.365 134.307 104.152 132.987 102.173C129.52 96.6332 123.795 94.6605 118.26 92.7525ZM47.2072 67.8763C51.3034 71.2461 55.8815 72.6076 60.099 71.7112C60.6748 71.5888 61.2407 71.4239 61.792 71.2178C70.3135 68.0546 73.513 56.1556 69.072 44.1083C67.2086 39.0427 64.1631 34.6031 60.5156 31.6066C56.4266 28.2438 51.8436 26.8862 47.6288 27.782C47.0531 27.9044 46.4872 28.0693 45.9358 28.2754C37.4144 31.4386 34.2148 43.3376 38.6558 55.3849C40.5148 60.4429 43.5591 64.877 47.2072 67.8763ZM92.8552 64.6151C93.4427 64.5791 94.0267 64.4996 94.6025 64.3772C98.8227 63.4802 102.449 60.3748 104.82 55.6303C106.93 51.4071 107.897 46.1205 107.547 40.7358C106.706 27.9292 98.9429 18.3603 89.8704 18.9311C89.2829 18.9671 88.6989 19.0467 88.1231 19.169C83.9095 20.0703 80.275 23.1747 77.9073 27.9099C75.7938 32.131 74.8174 37.4254 75.1793 42.8159C76.0212 55.6224 83.7839 65.1913 92.8552 64.6151ZM43.698 102.691L43.7331 102.669C46.6984 100.678 48.6578 97.5636 49.3987 93.6598C50.5207 87.7409 48.655 80.5399 44.4041 74.3712C38.5196 65.8346 29.5485 61.1635 22.0837 62.7502C20.5024 63.0839 18.998 63.712 17.6488 64.6017L17.6137 64.6234C14.6543 66.6015 12.6971 69.7271 11.9562 73.6309C10.8342 79.5498 12.7 86.7508 16.9508 92.9195C22.8354 101.456 31.8064 106.127 39.2713 104.54C40.8496 104.206 42.3512 103.579 43.698 102.691Z" fill="white"/>
</svg>
